<svg viewBox="0 0 512 512">
    <g id="Sun">
        <path d="M255.8,120a136,136,0,1,0,136,136.05v0A136.17,136.17,0,0,0,255.8,120Z" style="fill:#1e1e1e"/>
        <path d="M472,232H440a24,24,0,0,0,0,48h32a24,24,0,0,0,0-48Z" style="fill:#1e1e1e"/>
        <path d="M255.8,416a24,24,0,0,0-24,24v32a24,24,0,1,0,48,0V440A24,24,0,0,0,255.8,416Z" style="fill:#1e1e1e"/>
        <path d="M96,256.05a24,24,0,0,0-24-24H40a24,24,0,1,0,0,48H72A24,24,0,0,0,96,256.05Z" style="fill:#1e1e1e"/>
        <path d="M255.8,96a24,24,0,0,0,24-24V40a24,24,0,0,0-48,0V72a24,24,0,0,0,24,24Z" style="fill:#1e1e1e"/>
        <path d="M402.89,142.87l22.63-22.63a24,24,0,0,0-33.85-34l-.07.07L369,109a24,24,0,0,0,33.86,34Z" style="fill:#1e1e1e"/>
        <path d="M402.89,369.22a24,24,0,0,0-34,33.87l.06.05,22.63,22.63a24,24,0,0,0,34-33.86l-.06-.06Z" style="fill:#1e1e1e"/>
        <path d="M108.7,369.22,86.07,391.85a24,24,0,1,0,33.85,34l.07-.07,22.63-22.63a24,24,0,1,0-33.86-34Z" style="fill:#1e1e1e"/>
        <path d="M108.7,142.87a24,24,0,1,0,34-33.89l0,0L120,86.32a24,24,0,1,0-34,33.83l.09.09Z" style="fill:#1e1e1e"/>
    </g>
</svg>